<svg version="1.1" id="Layer_1" xmlns="http://www.w3.org/2000/svg" xmlns:xlink="http://www.w3.org/1999/xlink" x="0px" y="0px"
	 width="100%" viewBox="0 0 50 50" enable-background="new 0 0 50 50" xml:space="preserve">
<path fill="#DAA20A" opacity="1.000000" stroke="none"
	d="
M24.135824,2.999789
	C40.429394,2.293115 51.373329,14.499125 48.898937,31.635639
	C47.792370,39.299210 37.513454,48.304066 29.730061,48.984356
	C18.039177,50.006184 7.860844,45.715679 4.001165,33.406048
	C0.786543,23.153688 2.911048,12.039061 13.613499,6.250597
	C16.664335,4.600540 20.311518,4.053088 24.135824,2.999789
M16.410690,19.144258
	C16.618370,20.018702 16.826050,20.893145 17.561266,22.176710
	C18.639977,22.912399 19.718687,23.648090 20.707170,24.322245
	C16.809950,28.578157 12.551177,27.009357 8.071493,24.430222
	C10.229093,34.537254 10.368383,34.578369 25.081741,30.129215
	C24.733467,33.614094 24.405241,36.898369 24.077015,40.182648
	C24.568905,40.465519 25.060795,40.748394 25.552685,41.031265
	C30.210442,32.765968 33.171703,22.986286 43.724072,19.492119
	C40.554661,18.446665 37.812428,17.921537 35.387192,18.574249
	C32.054585,19.471167 28.962008,21.259970 25.662399,22.082590
	C25.407974,21.806717 25.153549,21.530844 24.294401,20.908491
	C23.185129,20.610739 22.075857,20.312986 20.442347,19.656155
	C19.632914,19.490868 18.823481,19.325583 17.515703,19.052984
	C17.350897,19.094364 17.186090,19.135746 16.410690,19.144258
z"/>
<path fill="#FBFAF6" opacity="1.000000" stroke="none"
	d="
M25.766584,22.666626
	C28.962008,21.259970 32.054585,19.471167 35.387192,18.574249
	C37.812428,17.921537 40.554661,18.446665 43.724072,19.492119
	C33.171703,22.986286 30.210442,32.765968 25.552685,41.031265
	C25.060795,40.748394 24.568905,40.465519 24.077015,40.182648
	C24.405241,36.898369 24.733467,33.614094 25.081741,30.129215
	C10.368383,34.578369 10.229093,34.537254 8.071493,24.430222
	C12.551177,27.009357 16.809950,28.578157 20.707170,24.322245
	C19.718687,23.648090 18.639977,22.912399 17.292000,21.648199
	C17.022251,20.472168 17.021767,19.824648 17.021282,19.177128
	C17.186090,19.135746 17.350897,19.094364 18.030941,19.272755
	C19.352982,19.666759 20.159784,19.840998 20.966585,20.015234
	C22.075857,20.312986 23.185129,20.610739 24.421762,21.246647
	C24.271971,22.114883 23.994818,22.644960 23.717665,23.175039
	C24.400639,23.005569 25.083611,22.836098 25.766584,22.666626
z"/>
<path fill="#F5F1E7" opacity="1.000000" stroke="none"
	d="
M25.714493,22.374607
	C25.083611,22.836098 24.400639,23.005569 23.717665,23.175039
	C23.994818,22.644960 24.271971,22.114883 24.724125,21.419888
	C25.153549,21.530844 25.407974,21.806717 25.714493,22.374607
z"/>
<path fill="#F5F1E7" opacity="1.000000" stroke="none"
	d="
M16.715986,19.160694
	C17.021767,19.824648 17.022251,20.472168 17.028233,21.443638
	C16.826050,20.893145 16.618370,20.018702 16.715986,19.160694
z"/>
<path fill="#F5F1E7" opacity="1.000000" stroke="none"
	d="
M20.704466,19.835693
	C20.159784,19.840998 19.352982,19.666759 18.280113,19.326410
	C18.823481,19.325583 19.632914,19.490868 20.704466,19.835693
z"/>
</svg>
