<?xml version="1.0" encoding="UTF-8" standalone="no" ?>
<!DOCTYPE svg PUBLIC "-//W3C//DTD SVG 1.1//EN" "http://www.w3.org/Graphics/SVG/1.1/DTD/svg11.dtd">
<svg xmlns="http://www.w3.org/2000/svg" xmlns:xlink="http://www.w3.org/1999/xlink" version="1.1" width="500" height="500" viewBox="0 0 500 500" xml:space="preserve">
<desc>Created with Fabric.js 5.3.0</desc>
<defs>
</defs>
<g transform="matrix(6.5192312102 0 0 6.5192312061 249.6719160105 250)" id="P1zUQoFuPWG8Hufc20JpS"  >
<path style="stroke: rgb(112,234,56); stroke-width: 0; stroke-dasharray: none; stroke-linecap: butt; stroke-dashoffset: 0; stroke-linejoin: miter; stroke-miterlimit: 4; fill: rgb(195,195,195); fill-rule: nonzero; opacity: 1;" vector-effect="non-scaling-stroke"  transform=" translate(0, 0)" d="M 0 -37.85644 C 21.16814 -37.85644 38.34808 -20.89675 38.34808 0 C 38.34808 20.89676 21.168140000000005 37.85644 0 37.85644 C -21.16814 37.85644 -38.34808 20.89675 -38.34808 0 C -38.34808 -20.89676 -21.168140000000005 -37.85644 0 -37.85644 z" stroke-linecap="round" />
</g>
<g transform="matrix(4.2959292957 0 0 4.295929293 244.7283746503 287.2841315149)" id="p1Lo4U9UmAFLO2AXwoafl"  >
<path style="stroke: rgb(0,0,0); stroke-width: 1; stroke-dasharray: none; stroke-linecap: butt; stroke-dashoffset: 0; stroke-linejoin: miter; stroke-miterlimit: 4; fill: rgb(255,255,255); fill-rule: nonzero; opacity: 1;" vector-effect="non-scaling-stroke"  transform=" translate(-0.0000069184, 0.0000058806)" d="M 3.81545 24.43783 C 3.5918099999999997 24.890900000000002 3.2442499999999996 25.271240000000002 2.8131199999999996 25.53471 L -3.6509100000000005 29.48495 L -3.9498400000000005 29.086370000000002 L -3.9498400000000005 29.086370000000002 C -4.76752 27.996140000000004 -5.08582 26.61088 -4.82605 25.273070000000004 L 0.04301999999999939 0.1973500000000037 L -19.57421 7.983570000000004 L -19.57421 7.983570000000004 C -23.52274 9.550770000000004 -27.73245 10.355660000000004 -31.98063 10.355660000000004 L -32.04884 10.355660000000004 L -32.04884 10.355660000000004 C -35.17359 10.355660000000004 -38.022189999999995 8.565880000000003 -39.37813 5.750660000000003 L -46.26305 -8.543889999999996 L -45.87018 -9.449289999999996 L -45.87018 -9.449289999999996 C -45.39445 -10.545669999999996 -44.27717 -11.221069999999996 -43.08529 -11.132789999999996 L -40.42037 -10.935389999999996 L -40.42037 -10.935389999999996 C -38.81527 -10.816489999999996 -37.28814 -10.196159999999995 -36.0548 -9.162069999999996 L -33.38574 -6.924209999999997 C -33.38574 -6.924209999999997 -29.798119999999997 -3.774969999999997 -28.05724 -4.551999999999997 C -14.53481 -10.587619999999998 21.217170000000003 -27.803979999999996 26.032469999999996 -28.694479999999995 C 30.307159999999996 -29.484999999999996 33.080549999999995 -29.482159999999997 36.566579999999995 -29.484959999999994 L 36.566579999999995 -29.484959999999994 C 37.446099999999994 -29.485669999999995 38.312509999999996 -29.271699999999996 39.09058999999999 -28.861629999999995 L 45.56558999999999 -25.449129999999993 L 45.56558999999999 -25.449129999999993 C 45.987249999999996 -25.226899999999993 46.25446999999999 -24.792709999999992 46.262859999999996 -24.316149999999993 C 46.27126 -23.839589999999994 46.01951 -23.396249999999995 45.60594 -23.159309999999994 L 20.095799999999997 -8.543899999999994 z" stroke-linecap="round" />
</g>
<g transform="matrix(4.2959292957 0 0 4.295929293 185.7533889483 201.9005634009)" id="ugcKvv-cuoTqNlZ20E0ir"  >
<path style="stroke: rgb(0,0,0); stroke-width: 1; stroke-dasharray: none; stroke-linecap: butt; stroke-dashoffset: 0; stroke-linejoin: miter; stroke-miterlimit: 4; fill: rgb(255,255,255); fill-rule: nonzero; opacity: 1;" vector-effect="non-scaling-stroke"  transform=" translate(-0.0000075546, 0)" d="M 0.47638 6.39842 L 14.378870000000001 -0.06596000000000046 L -3.55964 -6.2436300000000005 L -3.55964 -6.2436300000000005 C -3.85721 -6.34611 -4.16975 -6.398420000000001 -4.48448 -6.398420000000001 L -8.94779 -6.398420000000001 L -8.94779 -6.398420000000001 C -9.34469 -6.398420000000001 -9.737029999999999 -6.3137300000000005 -10.09859 -6.15 L -13.32459 -4.689170000000001 L -13.32459 -4.689170000000001 C -13.93999 -4.410500000000001 -14.34674 -3.8098300000000007 -14.377040000000001 -3.1349600000000004 C -14.407350000000001 -2.4600900000000006 -14.056080000000001 -1.8253800000000004 -13.468140000000002 -1.4926700000000004 z" stroke-linecap="round" />
</g>
</svg>